<?xml version="1.0" encoding="UTF-8" standalone="no"?>
<svg
   viewBox="0 0 32 32"
   version="1.1"
   id="svg6"
   sodipodi:docname="reboot.svg"
   inkscape:version="1.3.2 (091e20e, 2023-11-25, custom)"
   xmlns:inkscape="http://www.inkscape.org/namespaces/inkscape"
   xmlns:sodipodi="http://sodipodi.sourceforge.net/DTD/sodipodi-0.dtd"
   xmlns="http://www.w3.org/2000/svg"
   xmlns:svg="http://www.w3.org/2000/svg"
   xmlns:rdf="http://www.w3.org/1999/02/22-rdf-syntax-ns#"
   xmlns:cc="http://creativecommons.org/ns#"
   xmlns:dc="http://purl.org/dc/elements/1.1/">
  <metadata
     id="metadata10">
    <rdf:RDF>
      <cc:Work
         rdf:about="">
        <dc:format>image/svg+xml</dc:format>
        <dc:type
           rdf:resource="http://purl.org/dc/dcmitype/StillImage" />
        <dc:title />
      </cc:Work>
    </rdf:RDF>
  </metadata>
  <sodipodi:namedview
     pagecolor="#ffffff"
     bordercolor="#666666"
     borderopacity="1"
     objecttolerance="10"
     gridtolerance="10"
     guidetolerance="10"
     inkscape:pageopacity="0"
     inkscape:pageshadow="2"
     inkscape:window-width="2560"
     inkscape:window-height="1361"
     id="namedview8"
     showgrid="false"
     inkscape:zoom="9.08"
     inkscape:cx="-18.337004"
     inkscape:cy="15.253304"
     inkscape:window-x="2551"
     inkscape:window-y="-9"
     inkscape:window-maximized="1"
     inkscape:current-layer="svg6"
     inkscape:showpageshadow="0"
     inkscape:pagecheckerboard="0"
     inkscape:deskcolor="#d1d1d1" />
  <defs
     id="defs3051">
    <style
       type="text/css"
       id="current-color-scheme">
      .ColorScheme-Text {
        color:#4d4d4d;
      }
      </style>
  </defs>
  <path
     style="display:none;fill:#ffffff;fill-opacity:1;stroke:none"
     d="M 16,4 A 12,12 0 0 0 9.916016,5.671875 L 15.292969,11.050781 16,10.339844 11.595703,5.935547 A 11,11 0 0 1 16,5 11,11 0 0 1 27,16 11,11 0 0 1 25.595703,21.351562 l 0.732422,0.728516 A 12,12 0 0 0 28,16 12,12 0 0 0 16,4 Z M 5.671875,9.916016 A 12,12 0 0 0 4,16 12,12 0 0 0 16,28 12,12 0 0 0 22.083984,26.328125 L 16.707031,20.949219 16,21.65625 20.40625,26.060547 A 11,11 0 0 1 16,27 11,11 0 0 1 5,16 11,11 0 0 1 6.404297,10.648438 Z"
     class="ColorScheme-Text"
     id="path4" />
  <path
     style="display:inline;fill:none;fill-opacity:1;stroke:#ffffff;stroke-width:1;stroke-linecap:round;stroke-dasharray:none;stroke-dashoffset:1.13386;stroke-opacity:1"
     id="path2"
     sodipodi:type="arc"
     sodipodi:cx="16"
     sodipodi:cy="16"
     sodipodi:rx="11.5"
     sodipodi:ry="11.5"
     sodipodi:start="1.8762289"
     sodipodi:end="4.4069564"
     sodipodi:arc-type="arc"
     d="M 12.541884,26.967745 A 11.5,11.5 0 0 1 4.5,16 11.5,11.5 0 0 1 12.541884,5.0322549"
     sodipodi:open="true" />
  <path
     style="fill:none;fill-opacity:1;stroke:#ffffff;stroke-width:1;stroke-linecap:round;stroke-dasharray:none;stroke-dashoffset:1.13386;stroke-opacity:1"
     id="path16"
     sodipodi:type="arc"
     sodipodi:cx="16"
     sodipodi:cy="16"
     sodipodi:rx="11.5"
     sodipodi:ry="11.5"
     sodipodi:start="5.0178216"
     sodipodi:end="1.2653637"
     sodipodi:arc-type="arc"
     d="M 19.458117,5.0322551 A 11.5,11.5 0 0 1 27.5,16 11.5,11.5 0 0 1 19.458117,26.967745"
     sodipodi:open="true" />
  <path
     style="display:inline;fill:none;stroke:#ffffff;stroke-width:0.999985px;stroke-linecap:round;stroke-linejoin:miter;stroke-opacity:1"
     d="M 12.541884,5.0322549 10.988922,10.827991"
     id="path18"
     sodipodi:nodetypes="cc" />
  <path
     style="display:inline;fill:none;stroke:#ffffff;stroke-width:0.999985px;stroke-linecap:round;stroke-linejoin:miter;stroke-opacity:1"
     d="m 21.011079,21.172009 -1.552962,5.795736"
     id="path19"
     sodipodi:nodetypes="cc" />
</svg>
